<?xml version="1.0" encoding="utf-8"?>
<!-- Generator: Adobe Illustrator 21.1.0, SVG Export Plug-In . SVG Version: 6.00 Build 0)  -->
<svg version="1.1" id="Layer_1" xmlns="http://www.w3.org/2000/svg" xmlns:xlink="http://www.w3.org/1999/xlink" x="0px" y="0px"
	 viewBox="0 0 67 67" style="enable-background:new 0 0 67 67;" xml:space="preserve">
<style type="text/css">
	.st0{fill:#010101;}
</style>
<path class="st0" d="M19.6,34.1c-0.1,0,0.7,1.5,0.7,1.5c1.6,2.8,4.6,4.6,9.7,5c-0.7,0.5-1.6,1.6-1.7,2.8c-0.9,0.6-2.8,0.8-4.2,0.3
	c-2-0.6-2.8-4.5-5.8-4c-0.7,0.1-0.5,0.5,0,0.9c0.9,0.6,1.8,1.3,2.4,2.9c0.5,1.2,1.6,3.3,5,3.3c1.4,0,2.3-0.2,2.3-0.2s0,3,0,4.2
	c0,1.4-1.9,1.8-1.9,2.4c0,0.3,0.6,0.3,1.1,0.3c1,0,3-0.8,3-2.2c0-1.1,0-4.9,0-5.6c0-1.5,0.8-1.9,0.8-1.9s0.1,7.7-0.2,8.8
	c-0.3,1.2-0.9,1-0.9,1.6c0,0.8,2.5,0.2,3.3-1.6c0.6-1.4,0.4-9,0.4-9l0.7,0c0,0,0,3.5,0,5.1c0,1.6-0.1,3.7,0.9,4.7
	c0.7,0.6,2.8,1.8,2.8,0.7c0-0.6-1.2-1.1-1.2-2.7v-7.5c0.9,0,0.8,2.5,0.8,2.5l0.1,4.6c0,0-0.2,1.7,1.8,2.4c0.7,0.2,2.3,0.3,2.3-0.1
	c0.1-0.4-1.9-1-1.9-2.3c0-0.8,0-1.2,0-4.7c0-3.4-0.5-4.7-2.1-5.7c5-0.5,8.2-1.7,9.7-5c0.1,0,0.6-1.5,0.6-1.5
	c0.3-1.2,0.5-2.7,0.6-4.4c0-4.7-2.3-6.4-2.7-7.1c0.6-3.6-0.1-5.2-0.5-5.7c-1.3-0.5-4.5,1.2-6.3,2.3c-2.9-0.8-8.9-0.7-11.2,0.2
	c-4.2-2.9-6.4-2.5-6.4-2.5s-1.4,2.5-0.4,6.2c-1.4,1.7-2.4,2.9-2.4,6.2C18.9,31.1,19.1,32.7,19.6,34.1z M0,0h67v67H0V0z"/>
</svg>
