<?xml version="1.0" encoding="utf-8"?>
<!-- Generator: Adobe Illustrator 21.1.0, SVG Export Plug-In . SVG Version: 6.00 Build 0)  -->
<svg version="1.1" id="Layer_1" xmlns:sketch="http://www.bohemiancoding.com/sketch/ns"
	 xmlns="http://www.w3.org/2000/svg" xmlns:xlink="http://www.w3.org/1999/xlink" x="0px" y="0px" viewBox="0 0 67 67"
	 style="enable-background:new 0 0 67 67;" xml:space="preserve">
<style type="text/css">
	.st0{fill:#CE6F2D;}
	.st1{fill:#FFFFFF;}
</style>
<title></title>
<desc></desc>
<g id="soical">
	<g id="social" transform="translate(-973.000000, -438.000000)">
		<g id="slices" transform="translate(173.000000, 138.000000)">
		</g>
		<g id="square-flat" transform="translate(173.000000, 138.000000)">
			<path id="square-39" class="st0" d="M803.3,300h60.3c1.8,0,3.3,1.5,3.3,3.3v60.3c0,1.8-1.5,3.3-3.3,3.3h-60.3
				c-1.8,0-3.3-1.5-3.3-3.3v-60.3C800,301.5,801.5,300,803.3,300z"/>
		</g>
		<g id="icon" transform="translate(182.000000, 150.000000)">
			<path id="stackoverflow" class="st1" d="M832.2,323.7l-17.2-3.5l-0.9,3.7l19.7,4.1l0.7-3l1,0.5l1.8-3.9l-18.9-9l-1.8,3.9
				L832.2,323.7L832.2,323.7z M840,325.4V337H809v-11.6h3.9v7.7h23.2v-7.7H840z M814.2,327.9h20.6v3.9h-20.6V327.9z M840,318.1
				l-2.6,3.4l-16.8-13l1.9-2.5h1.9L840,318.1z"/>
		</g>
	</g>
</g>
</svg>
