<?xml version="1.0" encoding="utf-8"?>
<!-- Generator: Adobe Illustrator 21.1.0, SVG Export Plug-In . SVG Version: 6.00 Build 0)  -->
<svg version="1.1" id="Layer_1" xmlns:sketch="http://www.bohemiancoding.com/sketch/ns"
	 xmlns="http://www.w3.org/2000/svg" xmlns:xlink="http://www.w3.org/1999/xlink" x="0px" y="0px" viewBox="0 0 67 67"
	 style="enable-background:new 0 0 67 67;" xml:space="preserve">
<style type="text/css">
	.st0{fill:#CE6F2D;}
	.st1{fill:#FFFFFF;}
</style>
<title></title>
<desc></desc>
<g id="soical">
	<g id="social" transform="translate(-973.000000, -438.000000)">
		<g id="slices" transform="translate(173.000000, 138.000000)">
		</g>
		<g id="square-flat" transform="translate(173.000000, 138.000000)">
			<rect x="823.2" y="339.9" class="st0" width="20.6" height="3.9"/>
			<polygon class="st0" points="846.4,333.5 844.6,337.4 843.7,336.9 842.9,339.9 823.2,335.9 824.1,332.2 841.2,335.8 825.8,328.3 
				827.5,324.5 			"/>
			<polygon class="st0" points="849,330.1 846.4,333.5 846.4,333.5 829.6,320.5 831.5,318 833.4,318 			"/>
			<polygon class="st0" points="849,337.4 849,349 818,349 818,337.4 821.9,337.4 821.9,345.1 845.1,345.1 845.1,337.4 			"/>
		</g>
		<g id="icon" transform="translate(182.000000, 150.000000)">
			<path id="stackoverflow" class="st1" d="M824.4,306h-1.9l-1.9,2.5l16.8,13h0l2.6-3.4L824.4,306z M814.2,327.9v3.9h20.6v-3.9
				H814.2z M836.1,325.4v7.7h-23.2v-7.7H809V337H840v-11.6H836.1z M818.5,312.5l-1.8,3.9l15.5,7.4l-17.2-3.5l-0.9,3.7l19.7,4.1
				l0.7-3l1,0.5l1.8-3.9L818.5,312.5z"/>
		</g>
	</g>
</g>
<path class="st0" d="M0,0v67h67V0H0z M49,49H18V37.4h3.9v7.7h23.2v-7.7H49V49z M46.4,33.5L46.4,33.5l-1.8,3.9l-1-0.5l-0.7,3h0.9v3.9
	H23.2v-3.9h19.7l-19.7-4.1l0.9-3.7l17.2,3.5l-15.5-7.4l1.8-3.9L46.4,33.5l-16.8-13l1.9-2.5h1.9L49,30.1L46.4,33.5z"/>
</svg>
